<?xml version="1.0" encoding="UTF-8" standalone="no" ?>
<!DOCTYPE svg PUBLIC "-//W3C//DTD SVG 1.1//EN" "http://www.w3.org/Graphics/SVG/1.1/DTD/svg11.dtd">
<svg xmlns="http://www.w3.org/2000/svg" xmlns:xlink="http://www.w3.org/1999/xlink" version="1.1" width="1080" height="1080" viewBox="0 0 1080 1080" xml:space="preserve">
<desc>Created with Fabric.js 5.2.4</desc>
<defs>
</defs>
<rect x="0" y="0" width="100%" height="100%" fill="transparent"></rect>
<g transform="matrix(1 0 0 1 540 540)" id="10bc0791-54cf-4733-9539-27032e0592bb"  >
<rect style="stroke: none; stroke-width: 1; stroke-dasharray: none; stroke-linecap: butt; stroke-dashoffset: 0; stroke-linejoin: miter; stroke-miterlimit: 4; fill: rgb(55,65,81); fill-opacity: 0; fill-rule: nonzero; opacity: 1;" vector-effect="non-scaling-stroke"  x="-540" y="-540" rx="0" ry="0" width="1080" height="1080" />
</g>
<g transform="matrix(1 0 0 1 540 540)" id="f10e3291-10d7-4507-8f96-0277f1cebc45"  >
</g>
<g transform="matrix(23.55 0 0 23.84 538.59 543.36)"  >
<path style="stroke: rgb(0,0,0); stroke-width: 0; stroke-dasharray: none; stroke-linecap: butt; stroke-dashoffset: 0; stroke-linejoin: miter; stroke-miterlimit: 4; fill: rgb(55,64,80); fill-rule: nonzero; opacity: 1;" vector-effect="non-scaling-stroke"  transform=" translate(-25, -24.42)" d="M 17.791 46.836 C 18.502 46.53 19 45.823 19 45 L 19 39.6 C 19 39.403 19.016 39.198 19.041 38.99 C 19.027 38.994 19.014 38.997 19 39 C 19 39 16 39 15.4 39 C 13.9 39 12.600000000000001 38.4 12 37.2 C 11.3 35.900000000000006 11 33.7 9.2 32.5 C 8.9 32.3 9.1 32 9.7 32 C 10.299999999999999 32.1 11.6 32.9 12.399999999999999 34 C 13.299999999999999 35.1 14.2 36 15.799999999999999 36 C 18.287 36 19.619999999999997 35.875 20.421999999999997 35.445 C 21.356 34.056 22.649 33 24 33 L 24 32.975 C 18.332 32.793 14.711 30.909000000000002 13.025 28 C 9.36 28.042 6.1690000000000005 28.405 4.348000000000001 28.707 C 4.290000000000001 28.38 4.240000000000001 28.051000000000002 4.197000000000001 27.720000000000002 C 5.994000000000001 27.424000000000003 9.040000000000001 27.073000000000004 12.542000000000002 27.006000000000004 C 12.430000000000001 26.730000000000004 12.333000000000002 26.447000000000003 12.251000000000001 26.157000000000004 C 8.740000000000002 25.979000000000003 5.710000000000001 26.118000000000002 4.064000000000002 26.254000000000005 C 4.044000000000002 25.922000000000004 4.017000000000002 25.591000000000005 4.013000000000002 25.255000000000006 C 5.662000000000002 25.120000000000005 8.610000000000003 24.985000000000007 12.031000000000002 25.144000000000005 C 11.952000000000002 24.644000000000005 11.901000000000002 24.133000000000006 11.901000000000002 23.601000000000006 C 11.901000000000002 21.901000000000007 12.501000000000001 20.101000000000006 13.601 18.601000000000006 C 13.101 16.901000000000007 12.401000000000002 13.301000000000005 13.801 12.001000000000007 C 16.501 12.001000000000007 18.401 13.301000000000007 19.301000000000002 14.101000000000006 C 21 13.4 22.9 13 25 13 C 27.1 13 29 13.4 30.6 14.1 C 31.5 13.299999999999999 33.4 12 36.1 12 C 37.6 13.4 36.800000000000004 17 36.300000000000004 18.6 C 37.400000000000006 20.1 38.00000000000001 21.8 37.900000000000006 23.6 C 37.900000000000006 24.084000000000003 37.855000000000004 24.551000000000002 37.790000000000006 25.009 C 41.28900000000001 24.837 44.31700000000001 24.975 45.99400000000001 25.111 C 45.992000000000004 25.448 45.961000000000006 25.777 45.943000000000005 26.11 C 44.272000000000006 25.971999999999998 41.168000000000006 25.83 37.584 26.021 C 37.495000000000005 26.357 37.387 26.684 37.259 27.001 C 40.805 27.047 43.924 27.39 45.807 27.69 C 45.764 28.022000000000002 45.714 28.351000000000003 45.656 28.677 C 43.744 28.371 40.485 28.012999999999998 36.777 27.995 C 35.112 30.873 31.557 32.75 26 32.969 L 26 33 C 28.6 33 31 36.9 31 39.6 L 31 45 C 31 45.823 31.498 46.53 32.209 46.836 C 41.37 43.804 48 35.164 48 25 C 48 12.318 37.683 2 25 2 C 12.317 2 2 12.318 2 25 C 2 35.164 8.63 43.804 17.791 46.836 z" stroke-linecap="round" />
</g>
<g transform="matrix(16.74 0 0 3.54 537.89 112.79)" id="ebac6d63-15be-456c-9bf7-be8a9983a374"  >
<rect style="stroke: rgb(0,0,0); stroke-width: 0; stroke-dasharray: none; stroke-linecap: butt; stroke-dashoffset: 0; stroke-linejoin: miter; stroke-miterlimit: 4; fill: rgb(54,65,80); fill-rule: nonzero; opacity: 1;" vector-effect="non-scaling-stroke"  x="-33.085" y="-33.085" rx="0" ry="0" width="66.17" height="66.17" />
</g>
<g transform="matrix(0 5.51 -3.54 0 36.93 328.99)" id="ebac6d63-15be-456c-9bf7-be8a9983a374"  >
<rect style="stroke: rgb(0,0,0); stroke-width: 0; stroke-dasharray: none; stroke-linecap: butt; stroke-dashoffset: 0; stroke-linejoin: miter; stroke-miterlimit: 4; fill: rgb(55,64,80); fill-rule: nonzero; opacity: 1;" vector-effect="non-scaling-stroke"  x="-33.085" y="-33.085" rx="0" ry="0" width="66.17" height="66.17" />
</g>
<g transform="matrix(0 5.51 -3.54 0 1039.83 347.7)" id="ebac6d63-15be-456c-9bf7-be8a9983a374"  >
<rect style="stroke: rgb(0,0,0); stroke-width: 0; stroke-dasharray: none; stroke-linecap: butt; stroke-dashoffset: 0; stroke-linejoin: miter; stroke-miterlimit: 4; fill: rgb(55,64,80); fill-rule: nonzero; opacity: 1;" vector-effect="non-scaling-stroke"  x="-33.085" y="-33.085" rx="0" ry="0" width="66.17" height="66.17" />
</g>
<g transform="matrix(0 5.51 -3.54 0 1165.96 755.44)" id="ebac6d63-15be-456c-9bf7-be8a9983a374"  >
<rect style="stroke: rgb(254,219,218); stroke-width: 0; stroke-dasharray: none; stroke-linecap: butt; stroke-dashoffset: 0; stroke-linejoin: miter; stroke-miterlimit: 4; fill: rgb(55,64,80); fill-rule: nonzero; opacity: 1;" vector-effect="non-scaling-stroke"  x="-33.085" y="-33.085" rx="0" ry="0" width="66.17" height="66.17" />
</g>
<g transform="matrix(0 5.51 -6.19 0 915.7 897.7)" id="ebac6d63-15be-456c-9bf7-be8a9983a374"  >
<rect style="stroke: rgb(0,0,0); stroke-width: 0; stroke-dasharray: none; stroke-linecap: butt; stroke-dashoffset: 0; stroke-linejoin: miter; stroke-miterlimit: 4; fill: rgb(54,65,80); fill-rule: nonzero; opacity: 1;" vector-effect="non-scaling-stroke"  x="-33.085" y="-33.085" rx="0" ry="0" width="66.17" height="66.17" />
</g>
<g transform="matrix(0 5.51 -6.19 0 162.15 1119.64)" id="ebac6d63-15be-456c-9bf7-be8a9983a374"  >
<rect style="stroke: rgb(0,0,0); stroke-width: 0; stroke-dasharray: none; stroke-linecap: butt; stroke-dashoffset: 0; stroke-linejoin: miter; stroke-miterlimit: 4; fill: rgb(54,65,80); fill-rule: nonzero; opacity: 1;" vector-effect="non-scaling-stroke"  x="-33.085" y="-33.085" rx="0" ry="0" width="66.17" height="66.17" />
</g>
<g transform="matrix(0 5.51 -3.54 0 -92.42 786.09)" id="ebac6d63-15be-456c-9bf7-be8a9983a374"  >
<rect style="stroke: rgb(0,0,0); stroke-width: 0; stroke-dasharray: none; stroke-linecap: butt; stroke-dashoffset: 0; stroke-linejoin: miter; stroke-miterlimit: 4; fill: rgb(54,65,80); fill-rule: nonzero; opacity: 1;" vector-effect="non-scaling-stroke"  x="-33.085" y="-33.085" rx="0" ry="0" width="66.17" height="66.17" />
</g>
<g transform="matrix(0 5.51 -3.54 0 30.81 880.28)" id="ebac6d63-15be-456c-9bf7-be8a9983a374"  >
<rect style="stroke: rgb(0,0,0); stroke-width: 0; stroke-dasharray: none; stroke-linecap: butt; stroke-dashoffset: 0; stroke-linejoin: miter; stroke-miterlimit: 4; fill: rgb(54,65,80); fill-rule: nonzero; opacity: 1;" vector-effect="non-scaling-stroke"  x="-33.085" y="-33.085" rx="0" ry="0" width="66.17" height="66.17" />
</g>
<g transform="matrix(NaN NaN NaN NaN 0 0)"  >
<g style=""   >
</g>
</g>
<g transform="matrix(NaN NaN NaN NaN 0 0)"  >
<g style=""   >
</g>
</g>
</svg>